<?xml version="1.0" encoding="utf-8"?>
<svg xmlns="http://www.w3.org/2000/svg" viewBox="1049.075 246.806 174.0764 191.3615" width="174.0764px" height="191.3615px">
  <path d="M 1191.51 347.191 C 1215.92 325.702 1221.43 371.311 1193.25 374.5 C 1190.53 374.807 1185.78 374.952 1183.23 375.192 L 1181.1 373.388 L 1181.26 370.302 C 1183.64 370.002 1184.15 370.349 1186.21 371.533 C 1189.87 368.464 1190.92 352.798 1191.51 347.191 Z" style="pointer-events: auto; vector-effect: non-scaling-stroke; fill: rgba(0, 0, 0, 0);"/>
  <g style="" transform="matrix(1, 0, 0, 1, 2.842170943040401e-14, 5.684341886080802e-14)">
    <title>coffee-ride</title>
    <path d="M 1197.7 341.198 L 1192.99 345.34 L 1197.7 341.198 C 1197.85 341.126 1197.98 341.055 1198.12 340.987 C 1198.87 340.949 1199.54 340.873 1199.91 340.493 C 1200.1 340.312 1200.29 340.146 1200.47 339.994 C 1200.88 339.86 1201.29 339.748 1201.68 339.659 C 1203.79 339.187 1205.62 339.364 1207.15 340.036 C 1207.58 340.222 1207.97 340.445 1208.36 340.702 L 1209.61 341.743 C 1211.83 344.011 1212.97 347.685 1212.9 351.718 C 1212.56 349.884 1212.01 348.041 1212.01 347.397 C 1212.01 348.029 1212.54 349.816 1212.88 351.616 C 1212.89 351.65 1212.9 351.684 1212.9 351.718 C 1212.88 353.273 1212.67 354.881 1212.29 356.483 C 1211.88 357.129 1211.73 357.845 1211.65 358.581 C 1210.44 361.999 1208.34 365.264 1205.26 367.77 C 1204.2 368.587 1203.1 369.316 1201.98 369.87 C 1201.63 370.042 1201.28 370.243 1200.9 370.458 C 1198.87 371.382 1196.57 372.033 1193.96 372.325 C 1193.38 372.391 1192.7 372.448 1191.97 372.502 C 1191.88 372.416 1191.77 372.322 1191.66 372.22 C 1191.56 372.109 1191.27 372.104 1190.88 372.162 C 1190.48 372.221 1190.02 372.344 1189.53 372.487 C 1189.3 372.554 1189.08 372.626 1188.86 372.697 C 1187.02 372.8 1185.21 372.895 1183.94 373.014 L 1181.82 371.217 L 1181.9 369.51 C 1182.2 369.127 1182.67 368.828 1183.21 368.626 C 1183.77 368.421 1184.38 368.317 1184.95 368.33 C 1185.51 368.546 1186.1 368.888 1186.92 369.368 C 1187.87 368.586 1188.63 366.986 1189.26 364.942 C 1190.11 363.468 1191.1 361.856 1191.38 360.469 C 1192.49 354.854 1190.93 349.113 1193.38 344.138 C 1194.89 342.9 1196.35 341.929 1197.71 341.197 L 1197.7 341.198 Z" style="fill: rgb(247, 246, 242); pointer-events: auto; stroke-width: 0.998px;"/>
    <path d="M 1197.71 340.773 L 1193 344.915 L 1197.71 340.773 C 1197.84 340.7 1197.99 340.629 1198.12 340.562 C 1198.87 340.524 1199.54 340.448 1199.92 340.067 C 1200.09 339.887 1200.29 339.721 1200.48 339.569 C 1200.89 339.434 1201.29 339.323 1201.69 339.234 C 1203.79 338.762 1205.62 338.939 1207.16 339.611 C 1207.58 339.796 1207.98 340.02 1208.35 340.277 L 1209.6 341.318 C 1211.83 343.586 1212.98 347.259 1212.91 351.293 C 1212.56 349.459 1212.01 347.616 1212.01 346.971 C 1212.01 347.604 1212.54 349.391 1212.89 351.191 C 1212.9 351.225 1212.91 351.259 1212.91 351.293 C 1212.89 352.847 1212.68 354.456 1212.29 356.058 C 1211.88 356.703 1211.74 357.42 1211.66 358.156 C 1210.45 361.574 1208.34 364.838 1205.26 367.345 C 1204.21 368.162 1203.09 368.891 1201.99 369.445 C 1201.64 369.617 1201.28 369.817 1200.91 370.033 C 1198.87 370.957 1196.57 371.607 1193.97 371.899 C 1193.39 371.965 1192.71 372.023 1191.98 372.077 C 1191.88 371.991 1191.77 371.896 1191.67 371.795 C 1191.56 371.683 1191.27 371.678 1190.88 371.737 C 1190.49 371.796 1190.02 371.918 1189.53 372.062 C 1189.3 372.129 1189.08 372.2 1188.85 372.271 C 1187.02 372.375 1185.22 372.47 1183.95 372.589 L 1181.82 370.791 L 1181.91 369.085 C 1182.21 368.701 1182.68 368.402 1183.22 368.201 C 1183.77 367.996 1184.39 367.892 1184.96 367.905 C 1185.51 368.121 1186.09 368.463 1186.93 368.942 C 1187.87 368.161 1188.63 366.56 1189.26 364.516 C 1190.1 363.042 1191.09 361.431 1191.38 360.043 C 1192.5 354.429 1190.94 348.687 1193.38 343.713 C 1194.9 342.474 1196.34 341.504 1197.72 340.772 L 1197.71 340.773 Z" style="fill: rgb(247, 246, 242); pointer-events: auto; stroke-width: 0.998px;"/>
    <path d="M 1212.76 357.986 C 1212.58 358.691 1212.38 359.394 1212.13 360.091 C 1212.21 359.353 1212.35 358.635 1212.76 357.986 Z" style="fill: rgb(247, 246, 242); pointer-events: auto;"/>
    <path d="M 1202.46 371.418 C 1203.57 370.862 1204.68 370.132 1205.73 369.314 C 1204.45 370.357 1203 371.27 1201.38 372.008 C 1201.75 371.792 1202.11 371.591 1202.46 371.418 Z" style="fill: rgb(247, 246, 242); pointer-events: auto;"/>
    <path d="M 1192.14 373.776 C 1192.24 373.878 1192.35 373.972 1192.45 374.059 C 1191.47 374.131 1190.39 374.194 1189.32 374.255 C 1190.49 373.876 1191.86 373.5 1192.14 373.777 L 1192.14 373.776 Z" style="fill: rgb(247, 246, 242); pointer-events: auto;"/>
    <path d="M 1200.39 341.941 C 1200.01 342.322 1199.34 342.398 1198.59 342.437 C 1199.41 342.02 1200.2 341.69 1200.95 341.441 C 1200.76 341.593 1200.57 341.76 1200.39 341.941 Z" style="fill: rgb(247, 246, 242); pointer-events: auto;"/>
    <path d="M 1182.45 369.683 C 1183.86 369.505 1184.62 369.555 1185.43 369.873 C 1184.3 369.847 1182.98 370.279 1182.38 371.057 L 1182.45 369.683 Z" style="fill: rgb(247, 246, 242); pointer-events: auto;"/>
    <path fill="#E8E5E4" d="M1180.52 372.547C1181.16 370.829 1181.17 371.116 1182.45 369.683L1182.29 372.769L1184.42 374.573C1183.7 377.66 1181.55 379.694 1179.42 382.146L1178.61 381.079L1174.78 381.021L1178.48 371.56L1180.52 372.547Z"/>
    <path fill="#6F3C1A" d="M1178.48 371.56L1180.52 372.547C1180.1 374.916 1179.55 379.039 1178.61 381.079L1174.78 381.021L1178.48 371.56Z"/>
    <path fill="#B49D8C" d="M1152.08 402.798L1155.51 402.924C1158.21 404.835 1157.34 403.988 1158.59 407.65C1154.65 407.504 1154.06 405.715 1152.08 402.798Z"/>
    <path fill="#723F1B" d="M1178.28 401.67C1180.15 399.214 1181.1 397.955 1183.31 395.829C1187.17 394.968 1186.95 395.598 1191.21 396.928C1195.4 397.347 1193.94 396.68 1196.93 399.198L1198.57 399.652C1200.59 398.417 1201.76 398.948 1203.92 399.331C1219.64 402.119 1225.18 419.235 1208.5 426.131C1181.04 437.082 1153.74 438.508 1123.8 438.11C1106.36 437.878 1058.88 434.091 1049.74 415.118C1044.1 403.409 1075.93 396.607 1084.89 395.1L1090.09 401.449C1082.44 403.143 1064.16 406.148 1059.6 412.294L1059.96 414.109C1075.64 429.427 1138.07 429.25 1159.06 427.225C1168.03 426.359 1206.03 422.227 1209.74 412.962C1207.35 406.353 1185.02 402.898 1178.28 401.67Z"/>
    <path fill="#723F1B" d="M1130.14 246.806C1136.52 250.918 1141.37 258.894 1140.61 266.527C1140.28 275.412 1131.75 282.922 1130.64 291.3C1129.23 301.89 1142.63 304.586 1133.07 315.301C1130.65 313.225 1126.48 306.218 1124.68 303.219C1114.9 286.983 1129.13 277.391 1132.62 262.855C1130.02 256.421 1126.19 252.512 1130.14 246.806Z"/>
    <path fill="#723F1B" d="M1151.52 249.543C1154.42 249.908 1157.1 252.504 1158.64 254.43C1169.2 267.607 1156.99 279.843 1152.69 291.23C1150.5 297.022 1161.54 302.134 1155.59 310.826L1153.11 309.981C1139.71 293.421 1141.74 288.687 1152.89 271.394C1158.25 263.084 1147.68 258.31 1151.52 249.543Z"/>
    <path fill="#723F1B" d="M1111.92 264.704C1112.08 264.751 1112.24 264.798 1112.4 264.846C1122.76 272.084 1112.65 280.216 1108.99 287.438C1106.6 292.17 1112.13 303.028 1113.8 307.913L1111.02 311.917L1108.3 310.69C1105.29 305.03 1101.87 302.476 1100.23 296.029C1097.59 285.661 1106.45 273.496 1111.92 264.704Z"/>
    <path d="M 1192.7 346.572 C 1193.09 346.231 1193.47 345.908 1193.85 345.6 C 1191.4 350.591 1192.97 356.352 1191.84 361.985 C 1191.57 363.377 1190.58 364.994 1189.73 366.473 C 1191.57 360.497 1192.26 350.747 1192.7 346.572 Z" style="fill: rgb(247, 246, 242); pointer-events: auto;"/>
    <path fill="#723F1B" d="M1184.49 339.576C1194.72 335.51 1201.43 327.115 1213.76 333.824C1225.02 339.95 1225.01 356.502 1219.72 366.586C1212.88 379.614 1198.05 385.886 1183.75 384.677C1182.7 384.457 1176.58 395.308 1175.37 396.585C1172.39 400.285 1162.43 405.271 1159.97 408.109L1161.34 411.372C1157.59 414.328 1111.32 415.854 1107.24 410.664L1107.55 408.373C1087.98 392.613 1078.84 382.271 1075.83 355.409C1075.59 346.46 1073.06 334.775 1075.92 326.355C1077.36 324.412 1084.14 324.032 1085.89 324.047C1118.24 324.323 1150.59 324.358 1182.93 323.857C1186.1 323.808 1192.31 326.352 1192.77 330.098C1191.69 332.972 1188.58 335.018 1185.48 334.756C1152.3 331.942 1117.34 335.833 1084.3 333.481C1082.7 365.303 1093.13 402.312 1131.59 404.623C1152.32 405.869 1162.94 396.558 1174.78 381.021L1178.48 371.56C1182.33 360.874 1183.93 350.893 1184.49 339.576Z" style=""/>
  </g>
</svg>